<svg width="80" height="100" viewBox="0 0 80 100" fill="none" xmlns="http://www.w3.org/2000/svg">
<path d="M47.6734 68.0785C45.895 69.5339 43.7104 70.4975 41.3183 70.7579L43.5654 74.722C43.7842 75.1069 44.3325 75.0866 44.5256 74.6902L45.6876 72.2944C45.8098 72.0426 46.0683 71.8922 46.3439 71.9095L48.9632 72.0802C49.3979 72.1092 49.6876 71.6318 49.4717 71.2498L47.6734 68.0785Z" fill="#21005D"/>
<path d="M32.3265 68.0785L30.5282 71.2498C30.3095 71.6346 30.6021 72.1092 31.0367 72.0802L33.6561 71.9095C33.9317 71.8922 34.1902 72.0426 34.3123 72.2944L35.4743 74.6902C35.6675 75.0866 36.2186 75.1069 36.4345 74.722L38.6816 70.7579C36.2896 70.4975 34.1078 69.534 32.3265 68.0785Z" fill="#21005D"/>
<path d="M69.2356 52.4333C68.943 51.4321 67.9657 50.8216 66.9544 50.9952C64.4374 51.4234 58.9973 52.1989 50.9006 52.6069C51.7699 54.3228 52.2727 56.2672 52.2727 58.3332C52.2727 60.3992 51.7727 62.3408 50.9006 64.0566C58.9973 64.4646 64.4344 65.2401 66.9544 65.6683C67.9686 65.8419 68.943 65.2314 69.2356 64.2302C69.6078 62.96 69.9998 60.9924 69.9998 58.3304C69.9998 55.6684 69.6106 53.7037 69.2356 52.4305V52.4333Z" fill="#21005D"/>
<path d="M27.7272 58.3333C27.7272 56.2673 28.2272 54.3258 29.0994 52.607C21.0027 52.199 15.5656 51.4236 13.0456 50.9953C12.0314 50.8217 11.0569 51.4322 10.7643 52.4334C10.3922 53.7036 10.0001 55.6713 10.0001 58.3333C10.0001 60.9953 10.3893 62.96 10.7643 64.2331C11.057 65.2343 12.0342 65.8448 13.0456 65.6712C15.5626 65.2429 21.0027 64.4675 29.0994 64.0595C28.2301 62.3436 27.7272 60.3992 27.7272 58.3361V58.3333Z" fill="#21005D"/>
<path d="M40 48.6111C34.7273 48.6111 30.4545 52.9629 30.4545 58.3333C30.4545 63.7037 34.7273 68.0555 40 68.0555C45.2727 68.0555 49.5454 63.7037 49.5454 58.3333C49.5454 52.9629 45.2727 48.6111 40 48.6111ZM40 65.2778C36.2329 65.2778 33.1818 62.1701 33.1818 58.3333C33.1818 54.4965 36.2329 51.3889 40 51.3889C43.767 51.3889 46.8182 54.4965 46.8182 58.3333C46.8182 62.1701 43.767 65.2778 40 65.2778Z" fill="#21005D"/>
<path d="M39.7243 61.6667L38.0766 62.4046C37.5994 62.6187 37.071 62.2281 37.1221 61.6985L37.3039 59.8728C37.3238 59.6789 37.2613 59.485 37.1335 59.3404L35.9346 57.9717C35.5852 57.5753 35.7869 56.9416 36.2983 56.8316L38.0596 56.4439C38.2471 56.4034 38.4091 56.2819 38.5057 56.114L39.4119 54.5284C39.6761 54.0683 40.3267 54.0683 40.5909 54.5284L41.4971 56.114C41.5937 56.2819 41.7557 56.4034 41.9432 56.4439L43.7045 56.8316C44.2159 56.9445 44.4176 57.5753 44.0682 57.9717L42.8694 59.3404C42.7415 59.485 42.679 59.6789 42.6989 59.8728L42.8807 61.6985C42.9319 62.2281 42.4063 62.6187 41.9262 62.4046L40.2785 61.6667C40.1023 61.5886 39.9035 61.5886 39.7273 61.6667H39.7243Z" fill="#21005D"/>
<path d="M59.0909 33.7793V49.2252C56.3495 49.4885 52.9944 49.7547 49.0538 49.9197C46.8038 47.4197 43.5851 45.8369 40 45.8369C36.4149 45.8369 33.196 47.4197 30.9462 49.9197C27.0058 49.7518 23.6509 49.4885 20.9091 49.2252V33.7793L37.3411 39.5287C38.1991 39.8354 39.0997 39.9859 40.0002 39.9859C40.9007 39.9859 41.8013 39.8325 42.6592 39.5287L59.0909 33.7793Z" fill="#21005D"/>
<path d="M68.6196 23.5763L41.7731 14.1896C40.6254 13.7874 39.3782 13.7874 38.2305 14.1896L11.381 23.5763C9.54015 24.2186 9.54015 26.872 11.381 27.5172L38.2276 36.9039C39.3753 37.3061 40.6225 37.3061 41.7702 36.9039L68.6167 27.5172C70.4576 26.8749 70.4576 24.2215 68.6167 23.5763H68.6196Z" fill="#21005D"/>
</svg>
