<svg width="80" height="100" viewBox="0 0 80 100" fill="none" xmlns="http://www.w3.org/2000/svg">
<path d="M44.3549 54.3719C42.9799 55.0055 41.5111 55.3267 39.9998 55.3267C38.4856 55.3267 37.0196 55.0056 35.6418 54.3719L19.6163 47.0194V58.7439C19.6163 61.8341 21.4175 64.6177 24.2072 65.8359C29.2243 68.0262 34.6109 69.12 39.9971 69.12C45.3832 69.12 50.7694 68.0262 55.7869 65.8359C58.5766 64.6177 60.3778 61.8341 60.3778 58.7439V47.0194L44.3523 54.3719H44.3549Z" fill="#21005D"/>
<path d="M67.8269 40.217C69.4775 39.459 70.5031 37.8415 70.5031 35.9954C70.5031 34.1522 69.4775 32.5319 67.8241 31.7738L43.1114 20.4316C41.1341 19.523 38.8642 19.523 36.8898 20.4316L12.1741 31.7768C10.5236 32.5348 9.49799 34.1523 9.49799 35.9984C9.49799 37.8416 10.5236 39.4619 12.177 40.22L36.8897 51.56C37.8783 52.0143 38.9408 52.24 40.0005 52.24C41.0601 52.24 42.1226 52.0143 43.1112 51.56L64.2421 41.8637V54.1348C63.3415 54.6701 62.7279 55.6539 62.7279 56.791V58.3333C62.7279 60.0347 64.0859 61.4207 65.7592 61.4207C67.4297 61.4207 68.7905 60.0376 68.7905 58.3333V56.791C68.7905 55.6539 68.1769 54.6701 67.2763 54.1348V40.4719L67.8303 40.2201L67.8269 40.217Z" fill="#21005D"/>
</svg>
