<svg width="80" height="100" viewBox="0 0 80 100" fill="none" xmlns="http://www.w3.org/2000/svg">
<path d="M43.3069 36.8082C43.8779 37.0396 44.5483 36.7445 44.7728 36.1484L47.8864 27.9307C48.1136 27.3462 47.8068 26.6517 47.2386 26.4261L44.0795 25.1876L45.2955 21.9816C45.5937 21.2148 45.0284 20.5088 44.2955 20.3497L46.1932 15.3497C46.6364 14.1576 46.0568 12.815 44.8864 12.352L38.5795 9.87511C37.446 9.40636 36.0539 10.0285 35.6363 11.2061L33.7499 16.2061C33.0823 15.8387 32.2386 15.9486 31.9317 16.727L30.3067 21.0093C30.2954 21.0672 24.5112 36.3449 24.5112 36.3449H39.8632L43.261 27.3516L45.3519 28.1733L42.6587 35.3145C42.4314 35.9048 42.7155 36.5761 43.3064 36.8076L43.3069 36.8082ZM41.9546 24.3548L32.8411 20.7785L33.648 18.6488C33.5798 18.6112 42.8465 22.2513 42.7614 22.2252L41.9546 24.3548Z" fill="#21005D"/>
<path d="M36.9433 76.8547H17.7614C15.2046 76.8547 13.0342 74.8177 12.8297 72.2251L10.4206 41.9592C10.3609 41.447 10.7956 40.9609 11.307 40.9754H43.3979C43.9064 40.9609 44.3467 41.447 44.2843 41.9592L44.1706 43.3249L46.5343 42.3064C46.8098 40.4372 45.2587 38.6201 43.3979 38.6606H11.307C9.51442 38.623 7.96322 40.3244 8.1593 42.1444L10.5684 72.4103C10.8638 76.2066 14.0229 79.1695 17.7615 79.1695H36.9434C38.7161 79.1695 40.3525 78.4982 41.6252 77.3872L39.4434 76.1372C38.7047 76.6001 37.841 76.8547 36.9433 76.8547Z" fill="#21005D"/>
<path d="M13.136 36.3453L10.1247 28.0238C10.923 28.1222 11.7128 28.1338 12.5224 28.0933C12.5792 28.0933 15.5679 36.3458 15.5679 36.3458H22.0792L23.0906 33.6954L20.1474 25.5821C21.1616 24.8963 22.1104 24.1353 22.9201 23.2094L24.9428 28.7881L26.1814 25.5126C25.9911 24.9281 24.1672 19.9918 24.0223 19.5751C23.9427 19.3668 23.8177 19.1816 23.6359 19.0427C20.6615 16.7915 14.6897 12.2285 11.7268 9.95678C11.0819 9.44752 10.0706 9.82657 9.93134 10.6512L8.41999 18.0123L6.91999 25.3503C6.78647 25.7669 7.15011 26.4208 7.2609 26.8086C7.2609 26.8086 10.7268 36.3805 10.7381 36.3805C11.133 36.3168 12.7127 36.354 13.136 36.3453ZM10.477 19.3201C12.8065 18.9787 15.0224 18.1627 17.0111 16.8896L21.9884 20.6859C19.2441 24.5806 13.7666 26.632 9.21603 25.466L10.477 19.3201Z" fill="#21005D"/>
<path d="M20.5338 50.234H28.2385L38.9542 45.5812C38.3292 44.8868 37.4314 44.447 36.4428 44.447H18.261C16.386 44.447 14.8519 46.0095 14.8519 47.9192V68.7526C14.8519 70.6623 16.386 72.2248 18.261 72.2248H32.5796L18.8865 64.4122C14.7871 62.2363 15.1791 55.7315 19.4547 54.0418L22.8979 52.5488H20.5342C19.0427 52.5199 19.0423 50.2629 20.5338 50.234Z" fill="#21005D"/>
<path d="M72.3978 40.3615C74.037 37.5751 70.9944 34.1202 68.091 35.4772L66.6705 36.0906C67.1961 38.3013 67.9376 41.406 68.466 43.6136L69.1137 43.984C69.6478 44.2849 69.841 44.9794 69.5569 45.5233L72.3978 40.3615Z" fill="#21005D"/>
<path d="M52.6931 69.0999C51.784 68.6196 52.0056 67.141 52.9999 66.9587L51.6817 61.461L47.6135 68.8569C47.3237 69.4182 46.5993 69.6207 46.0681 69.3082L32.1815 61.3912C31.7952 61.1713 31.5679 60.7315 31.6133 60.2801C31.6474 59.8287 31.9429 59.4352 32.3633 59.2847L49.6702 53.0231L47.602 44.3542L20.3409 56.1713C19.125 56.6921 18.3409 57.8495 18.2613 59.1805C18.1932 60.5116 18.8636 61.75 20 62.3982L47.6931 78.1967C49.301 79.1226 51.409 78.5497 52.3294 76.8541L54.443 73.0115C54.2299 72.1463 53.8493 70.5491 53.6589 69.7129C53.6362 69.6435 52.6931 69.0999 52.6931 69.0999ZM52.0226 72.6994L51.0226 72.1323C50.4772 71.8198 50.284 71.1138 50.5908 70.5582C50.8976 70.0027 51.5908 69.8059 52.1363 70.1184L53.1249 70.6856L52.0226 72.6994Z" fill="#21005D"/>
<path d="M69.7957 58.9843C67.9605 51.2555 66.0002 43.1192 64.1706 35.431L63.3638 32.0514C62.9206 30.188 61.0684 29.0421 59.2388 29.5051L50.409 31.6926C48.6135 32.0977 47.4374 34.0798 47.909 35.8823L57.5795 76.3683C58.0284 78.2491 59.9205 79.366 61.6931 78.9261L70.5338 76.727C71.4202 76.5071 72.1589 75.9515 72.6361 75.1645C73.7639 73.4486 72.5651 71.0875 72.227 69.1575C71.4855 66.0962 70.54 62.0309 69.7957 58.9843ZM67.0684 57.3408L65.9661 57.6186C65.3724 57.7459 64.736 57.3987 64.5911 56.7621C64.4434 56.1371 64.8184 55.5121 65.4207 55.3617L66.5343 55.0839L67.0684 57.3408ZM63.8411 43.8452C63.6309 43.8829 62.6621 44.1751 62.4661 44.1577C61.9548 44.1577 61.4888 43.7989 61.3639 43.2666C61.2161 42.6531 61.5911 42.0166 62.2047 41.8661L63.307 41.5883L63.8411 43.8452ZM59.7502 36.5189C59.6025 35.9054 59.9775 35.2689 60.5911 35.1184L61.6933 34.8406L62.2388 37.0976C62.0286 37.1381 61.0485 37.4246 60.8525 37.4101C60.3411 37.4101 59.8751 37.0513 59.7502 36.5189ZM60.557 39.8985C60.4093 39.2735 60.7843 38.6485 61.3979 38.4981L62.5002 38.2203L63.0456 40.4656C62.8354 40.5061 61.8553 40.7926 61.6593 40.7781C61.1479 40.7781 60.682 40.4193 60.557 39.8985ZM61.898 45.5119L64.1139 44.9679L64.648 47.2249C64.4946 47.2509 62.2559 47.847 62.1708 47.8036C60.8639 47.8123 60.6139 45.8418 61.898 45.5119ZM62.9775 50.0142C62.8298 49.4008 63.2048 48.7642 63.8071 48.6138L64.9207 48.336L65.4548 50.5929C65.2445 50.6335 64.2758 50.9199 64.0798 50.9054C63.5684 50.9054 63.1025 50.5466 62.9775 50.0142ZM63.7844 53.3938C63.6367 52.7688 64.0117 52.1438 64.6139 51.9934L65.7275 51.7156L66.2616 53.9609C66.0514 54.0015 65.0826 54.2879 64.8866 54.2734C64.3753 54.2734 63.9093 53.9147 63.7844 53.3938ZM65.1253 59.0072L67.3413 58.4633L67.8754 60.7202C67.7475 60.7405 65.4435 61.3452 65.3981 61.2989C64.0913 61.3134 63.8413 59.3169 65.1253 59.0072ZM66.2049 63.5095C66.0572 62.8845 66.4322 62.2595 67.0344 62.1091L68.148 61.8313L68.6821 64.0883L67.5799 64.3661C66.9861 64.4934 66.3498 64.1461 66.2049 63.5095ZM67.0117 66.8892C66.864 66.2642 67.239 65.6392 67.8413 65.4887L68.9549 65.2109L69.4889 67.4679C69.2787 67.5055 68.31 67.7833 68.114 67.7688C67.6026 67.7688 67.1367 67.41 67.0117 66.8892ZM69.1935 71.1137C67.7362 71.4262 67.2077 69.2561 68.6481 68.8567L69.7503 68.5905L70.2958 70.8358L69.1935 71.1137Z" fill="#21005D"/>
</svg>
