<svg xmlns="http://www.w3.org/2000/svg" version="1.1" xmlns:xlink="http://www.w3.org/1999/xlink" width="43" height="43"><svg width="43" height="43" viewBox="0 0 43 43" fill="none" xmlns="http://www.w3.org/2000/svg">
<path d="M14.8596 2.9801C15.3239 2.55985 15.556 2.34973 15.7698 2.17943C18.8616 -0.283768 23.2229 -0.344045 26.3816 2.03277C26.6 2.19709 26.8379 2.40072 27.3136 2.80797C27.4729 2.94433 27.5525 3.01251 27.6324 3.07767C28.7519 3.99091 30.081 4.60991 31.4993 4.87864C31.6005 4.89782 31.7038 4.91486 31.9105 4.94896C32.5278 5.05078 32.8365 5.10169 33.1026 5.16302C36.9519 6.05014 39.7184 9.43015 39.8339 13.3871C39.8419 13.6607 39.8314 13.9741 39.8104 14.6007C39.8033 14.8106 39.7998 14.9155 39.7988 15.0187C39.7845 16.4653 40.1303 17.8927 40.8051 19.1716C40.8532 19.2629 40.9043 19.3545 41.0066 19.5377C41.3121 20.0849 41.4649 20.3585 41.583 20.6053C43.2912 24.1747 42.3796 28.4498 39.3649 31.0073C39.1565 31.1841 38.9055 31.3712 38.4035 31.7454C38.2355 31.8707 38.1514 31.9333 38.0703 31.9969C36.9329 32.8876 36.0351 34.0485 35.4582 35.3745C35.4171 35.4692 35.3775 35.5663 35.2983 35.7607C35.062 36.3413 34.9438 36.6315 34.8249 36.8779C33.1057 40.4418 29.2025 42.3927 25.3277 41.6249C25.0599 41.5718 24.7574 41.4917 24.1525 41.3317C23.95 41.2781 23.8487 41.2513 23.7485 41.2273C22.3446 40.8913 20.8792 40.9116 19.4851 41.2863C19.3856 41.313 19.2851 41.3426 19.0841 41.4017C18.4839 41.5784 18.1838 41.6668 17.9174 41.7273C14.0654 42.6019 10.1098 40.7596 8.29271 37.2446C8.16708 37.0016 8.04092 36.7147 7.78859 36.1409C7.70411 35.9488 7.66187 35.8528 7.6181 35.7593C7.00476 34.4497 6.07525 33.314 4.9137 32.4551C4.83082 32.3939 4.74508 32.3336 4.57362 32.213C4.0615 31.8528 3.80543 31.6727 3.59221 31.5017C0.508029 29.0285 -0.521361 24.7802 1.08753 21.165C1.19877 20.915 1.34389 20.6373 1.63415 20.0819C1.73133 19.8959 1.77992 19.8029 1.82552 19.7104C2.46466 18.4133 2.77095 16.9769 2.71666 15.5312C2.71278 15.428 2.70636 15.3233 2.69352 15.1137C2.65516 14.4879 2.63598 14.1749 2.63641 13.9012C2.64253 9.94257 5.31455 6.48739 9.13786 5.49423C9.40219 5.42557 9.70933 5.36615 10.3236 5.2473C10.5293 5.20751 10.6321 5.18762 10.7327 5.16565C12.1431 4.85783 13.4545 4.20233 14.5484 3.2585C14.6264 3.19115 14.7041 3.1208 14.8596 2.9801Z" fill="#6750A4"></path>
<path d="M8.76463 29.9354C8.2713 29.9354 7.84463 29.7554 7.48463 29.3954C7.1313 29.0354 6.95463 28.6054 6.95463 28.1054V17.8354C6.95463 17.0954 7.21463 16.462 7.73463 15.9354C8.25463 15.402 8.87796 15.1354 9.60463 15.1354C10.158 15.1354 10.6713 15.3087 11.1446 15.6554C11.618 15.9954 11.9413 16.402 12.1146 16.8754L14.9546 24.4954L17.7546 16.8654C17.9213 16.3987 18.2346 15.9954 18.6946 15.6554C19.1613 15.3154 19.6646 15.1454 20.2046 15.1454C20.918 15.1454 21.5213 15.402 22.0146 15.9154C22.5146 16.422 22.7646 17.0387 22.7646 17.7654V28.1554C22.7646 28.642 22.5946 29.0587 22.2546 29.4054C21.9146 29.752 21.5013 29.9254 21.0146 29.9254C20.5346 29.9254 20.1246 29.752 19.7846 29.4054C19.4446 29.0587 19.2746 28.642 19.2746 28.1554V22.1254L19.2846 21.4954L16.6346 28.6854C16.508 29.0187 16.2846 29.3087 15.9646 29.5554C15.6446 29.7954 15.2913 29.9154 14.9046 29.9154C14.5246 29.9154 14.1713 29.7954 13.8446 29.5554C13.5246 29.3154 13.3046 29.0254 13.1846 28.6854L10.5546 21.5454L10.5746 22.1654V28.1054C10.5746 28.6054 10.3946 29.0354 10.0346 29.3954C9.6813 29.7554 9.25796 29.9354 8.76463 29.9354ZM26.659 29.9454C26.1323 29.9454 25.679 29.7554 25.299 29.3754C24.9257 28.9887 24.739 28.5287 24.739 27.9954V17.5354C24.739 16.9554 24.9357 16.4587 25.329 16.0454C25.729 15.6254 26.2057 15.4154 26.759 15.4154H30.559C32.0457 15.4154 33.229 15.8587 34.109 16.7454C34.9957 17.6254 35.439 18.8487 35.439 20.4154V20.7654C35.439 22.2987 34.9923 23.4954 34.099 24.3554C33.2123 25.2154 32.0257 25.6454 30.539 25.6454H26.969V22.5154H30.119C30.6323 22.5154 31.0357 22.382 31.329 22.1154C31.629 21.842 31.779 21.4187 31.779 20.8454V20.4754C31.779 19.922 31.6223 19.512 31.309 19.2454C30.9957 18.9787 30.5757 18.8454 30.049 18.8454H28.579V27.9954C28.579 28.5287 28.389 28.9887 28.009 29.3754C27.629 29.7554 27.179 29.9454 26.659 29.9454Z" fill="white"></path>
</svg><style>@media (prefers-color-scheme: light) { :root { filter: none; } }
@media (prefers-color-scheme: dark) { :root { filter: none; } }
</style></svg>